<?xml version="1.0" encoding="iso-8859-1"?>
<!-- Generator: Adobe Illustrator 19.0.0, SVG Export Plug-In . SVG Version: 6.00 Build 0)  -->
<svg version="1.1" id="Layer_1" xmlns="http://www.w3.org/2000/svg" xmlns:xlink="http://www.w3.org/1999/xlink" x="0px" y="0px"
	 viewBox="0 0 512 512" style="enable-background:new 0 0 512 512;" xml:space="preserve">
<path style="fill:#9EB500;" d="M512,486.4c0,14.136-11.464,25.6-25.6,25.6H25.6C11.464,512,0,500.536,0,486.4V40.96
	c0-14.136,11.464-25.6,25.6-25.6h460.8c14.136,0,25.6,11.464,25.6,25.6V486.4z"/>
<path style="fill:#C8DE30;" d="M512,471.04c0,14.136-11.464,25.6-25.6,25.6H25.6c-14.136,0-25.6-11.464-25.6-25.6V25.6
	C0,11.464,11.464,0,25.6,0h460.8C500.536,0,512,11.464,512,25.6V471.04z"/>
<path style="fill:#AEC700;" d="M486.4,496.64c14.136,0,25.6-11.464,25.6-25.6V224.41L336.891,48.963h-15.329l-8.868,71.48h-29.844
	c-0.317-0.317-46.459-46.408-47.293-47.201c-12.488-13.128-30.085-21.356-49.638-21.356c-37.862,0-68.557,30.694-68.557,68.557
	c0,19.553,8.228,37.151,21.361,49.638c0.794,0.835,46.884,46.971,47.201,47.288v214.943l65.787,64.328H486.4z"/>
<circle style="fill:#EFB300;" cx="185.907" cy="120.443" r="68.557"/>
<circle style="fill:#FFFFFF;" cx="185.907" cy="120.443" r="60.652"/>
<path style="fill:#FBD800;" d="M189.645,68.772v42.67l30.172-30.172C211.338,73.912,200.847,69.565,189.645,68.772z M182.19,111.442
	v-42.67c-11.197,0.794-21.693,5.14-30.172,12.498L182.19,111.442z M146.744,86.543c-7.357,8.479-11.704,18.975-12.498,30.172h42.67
	L146.744,86.543z M134.246,124.17c0.794,11.197,5.14,21.693,12.498,30.172l30.172-30.172H134.246z M182.19,172.114v-42.67
	l-30.172,30.172C160.497,166.973,170.993,171.32,182.19,172.114z M225.091,86.543l-30.172,30.172h42.67
	C236.795,105.518,232.448,95.022,225.091,86.543z"/>
<rect x="185.907" y="120.443" style="fill:#FFFFFF;" width="157.522" height="311.875"/>
<rect x="264.678" y="120.443" style="fill:#D8EDEE;" width="78.761" height="311.875"/>
<rect x="196.854" y="120.443" style="fill:#AAEBFF;" width="135.649" height="286.438"/>
<rect x="264.033" y="120.443" style="fill:#61C8E8;" width="68.47" height="286.438"/>
<rect x="196.854" y="202.563" style="fill:#FBD800;" width="135.649" height="204.319"/>
<rect x="264.678" y="202.563" style="fill:#EFB300;" width="67.825" height="204.319"/>
<polygon style="fill:#F15B00;" points="292.485,406.881 277.156,406.881 321.562,48.963 336.891,48.963 "/>
<g>
</g>
<g>
</g>
<g>
</g>
<g>
</g>
<g>
</g>
<g>
</g>
<g>
</g>
<g>
</g>
<g>
</g>
<g>
</g>
<g>
</g>
<g>
</g>
<g>
</g>
<g>
</g>
<g>
</g>
</svg>
