<?xml version="1.0" encoding="iso-8859-1"?>
<!-- Generator: Adobe Illustrator 19.0.0, SVG Export Plug-In . SVG Version: 6.00 Build 0)  -->
<svg version="1.1" id="Layer_1" xmlns="http://www.w3.org/2000/svg" xmlns:xlink="http://www.w3.org/1999/xlink" x="0px" y="0px"
	 viewBox="0 0 512.001 512.001" style="enable-background:new 0 0 512.001 512.001;" xml:space="preserve">
<rect x="239.375" y="255.532" style="fill:#5A7EBF;" width="33.246" height="171.973"/>
<path style="fill:#4360AC;" d="M339.235,483.623l-66.61-66.61h-33.246l-66.61,66.61c-4.754,4.754-6.176,11.904-3.604,18.116
	c2.573,6.212,8.635,10.262,15.358,10.262h142.96c6.724,0,12.785-4.051,15.358-10.262
	C345.411,495.526,343.989,488.377,339.235,483.623z"/>
<rect x="255.998" y="255.532" style="fill:#4C6BB3;" width="16.623" height="171.973"/>
<path style="fill:#2E50A2;" d="M339.235,483.623l-66.61-66.61h-16.623v94.988h71.48c6.724,0,12.785-4.051,15.358-10.262
	C345.411,495.526,343.989,488.377,339.235,483.623z"/>
<path style="fill:#AAC6E9;" d="M256,298.114c-4.408,0-8.636-1.752-11.754-4.87L59.627,108.626
	c-4.754-4.754-6.176-11.904-3.604-18.116c2.573-6.212,8.635-10.262,15.358-10.262h369.24c6.724,0,12.785,4.051,15.358,10.262
	c2.572,6.212,1.15,13.362-3.604,18.116l-184.619,184.62C264.638,296.363,260.409,298.114,256,298.114z"/>
<path style="fill:#A38A67;" d="M294.781,195.348l70.795-172.406c3.488-8.492-0.57-18.205-9.063-21.691
	c-8.491-3.489-18.204,0.571-21.691,9.063l-75.98,185.035h35.939V195.348z"/>
<polygon style="fill:#4C6BB3;" points="173.984,175.093 256,257.11 338.017,175.093 "/>
<path style="fill:#8BBE4D;" d="M346.296,20.851c-4.858-1.888-9.999-2.846-15.281-2.846c-22.496,0-44.326,17.275-54.321,42.987
	c-5.724,14.723-6.842,30.426-3.152,44.219c4.129,15.43,14.104,27.237,27.365,32.392c4.858,1.89,9.999,2.847,15.281,2.847
	c22.496,0,44.326-17.275,54.321-42.987C383.235,64.728,372.599,31.076,346.296,20.851z"/>
<g>
</g>
<g>
</g>
<g>
</g>
<g>
</g>
<g>
</g>
<g>
</g>
<g>
</g>
<g>
</g>
<g>
</g>
<g>
</g>
<g>
</g>
<g>
</g>
<g>
</g>
<g>
</g>
<g>
</g>
</svg>
